<?xml version="1.0" standalone="no"?><!DOCTYPE svg PUBLIC "-//W3C//DTD SVG 1.1//EN" "http://www.w3.org/Graphics/SVG/1.1/DTD/svg11.dtd"><svg t="1561553856766" class="icon" viewBox="0 0 1024 1024" version="1.1" xmlns="http://www.w3.org/2000/svg" p-id="2432" width="64" height="64" xmlns:xlink="http://www.w3.org/1999/xlink"><defs><style type="text/css"></style></defs><path d="M616.96 703.104h-48.128s-6.144-3.84-6.144-14.592v-101.12l-54.4 0.64v112.512s5.248 29.696 44.672 29.696h91.264V594.432H616.96v108.672zM453.76 594.432h-50.944s-47.104-1.792-63.488 51.456c-5.76 35.584 5.12 49.152 7.04 53.76 1.92 4.48 17.152 30.72 55.296 30.72h79.488V525.824l-27.136-0.64v69.248z m0 108.672h-40.192s-24.832-0.64-32.384-29.184c-3.84-12.8 0.64-24.96 2.56-30.592 1.792-5.76 10.112-21.76 27.264-21.76h42.752v81.536z" fill="#0068FF" p-id="2433"></path><path d="M511.744 1.664C229.504 1.664 0.64 230.528 0.64 512.768 0.64 795.136 229.504 1024 511.744 1024c282.368 0 511.232-228.864 511.232-511.232 0-282.24-228.864-511.104-511.232-511.104z m31.232 271.232c4.096-37.12 48.512-94.208 84.224-86.016 35.456 8.064 67.968 55.168 61.312 95.744-6.4 40.576-38.656 94.208-88.832 87.68-50.176-6.528-61.568-51.968-56.704-97.408z m-105.088-102.272c37.504 0 67.968 43.264 67.968 96.64s-30.336 96.64-67.968 96.64c-37.504 0-67.968-43.264-67.968-96.64 0-53.504 30.464-96.64 67.968-96.64zM226.048 399.488s8.064-79.488 63.104-84.48c43.776-3.84 75.904 44.032 79.232 71.424 2.048 17.792 11.264 99.072-56.704 113.664-67.84 14.592-93.184-63.872-85.632-100.608z m517.504 342.528c-37.248 87.68-173.184 42.112-173.184 42.112s-50.176-16.128-108.288-3.2c-58.24 13.056-108.288 8.064-108.288 8.064s-68.096 1.664-87.424-84.352c-19.328-86.144 67.968-133.248 74.496-141.184 6.4-8.192 51.712-38.912 80.768-87.68 29.184-48.64 116.48-87.68 177.92 8.064 45.312 64.896 123.008 125.056 123.008 125.056s58.24 45.568 20.992 133.12z m-11.264-199.68c-74.496 1.664-77.568-50.304-77.568-87.552 0-39.04 8.064-94.208 67.968-94.208 59.904 0 76.032 58.496 76.032 77.952-0.128 19.456 7.936 102.144-66.432 103.808z" fill="#0068FF" p-id="2434"></path></svg>