<?xml version="1.0" standalone="no"?><!DOCTYPE svg PUBLIC "-//W3C//DTD SVG 1.1//EN" "http://www.w3.org/Graphics/SVG/1.1/DTD/svg11.dtd"><svg t="1561554667115" class="icon" viewBox="0 0 1024 1024" version="1.1" xmlns="http://www.w3.org/2000/svg" p-id="3416" width="32" height="32" xmlns:xlink="http://www.w3.org/1999/xlink"><defs><style type="text/css"></style></defs><path d="M511.3 599.6m-46.7 0a46.7 46.7 0 1 0 93.4 0 46.7 46.7 0 1 0-93.4 0Z" fill="#231815" p-id="3417"></path><path d="M694 656.3c-15.2 2.6-25.5 17-22.9 32.2 0.6 3.9 1 7.4 1 10.8 0 36.6-29.8 66.4-66.4 66.4-36.6 0-66.4-29.8-66.4-66.4 0-15.4-12.5-27.9-27.9-27.9s-27.9 12.5-27.9 27.9c0 36.6-29.8 66.4-66.4 66.4-36.6 0-66.4-29.8-66.4-66.4 0-3.4 0.3-7 1-10.8 2.5-15.2-7.7-29.6-22.9-32.2-15.2-2.4-29.6 7.7-32.2 22.9-1.2 6.9-1.7 13.5-1.7 20 0 67.4 54.8 122.3 122.2 122.3 37.9 0 71.9-17.4 94.3-44.6 22.4 27.2 56.4 44.6 94.3 44.6 67.4 0 122.2-54.8 122.2-122.3 0-6.6-0.6-13.1-1.7-20-2.6-15.2-16.9-25.3-32.2-22.9z" fill="#231815" p-id="3418"></path><path d="M876.6 347.6c-0.8-1.1-1.3-2.2-1.5-3.1l-40-216.5c-5.2-27.9-24.1-50.5-50.6-60.5-26.6-10-55.7-5.5-78 12.1L572.7 185.2c-1.4 1.1-3.2 1.6-4.9 1.5-37.3-3.7-75.6-3.7-113 0-1.6 0.2-3.4-0.4-4.8-1.5L316.1 79.5c-22.3-17.6-51.4-22-77.9-12.1-26.5 10-45.5 32.6-50.6 60.5l-40 216.5c-0.2 1-0.7 2.1-1.5 3.1-43.8 59.3-66 128.7-66 206.4 0.1 192.5 151.9 365.5 353 402.5 8 1.5 42.6 5.7 78.2 5.7s70.3-4.3 78.2-5.7c201.2-37 352.9-210.1 353.1-402.6 0.1-77.5-22.1-146.9-66-206.2z m-297.2 554c-5.3 1-37 4.8-68.1 4.8s-62.8-3.8-68.1-4.8C268.1 869.3 136 719.9 135.9 553.9c0-65.4 18.5-123.6 55-173.1 5.8-7.9 9.8-16.9 11.5-26.2l40-216.5c2.3-12.2 11.5-16.9 15.4-18.4 1.8-0.7 5-1.6 8.9-1.6 4.4 0 9.7 1.2 14.8 5.3l134 105.8c12.9 10.1 28.7 14.8 44.9 13.1 33.6-3.3 68.3-3.3 101.8 0 16.1 1.7 32.1-3 45-13.2l133.9-105.7c9.8-7.7 19.8-5.2 23.7-3.7 3.9 1.5 13.1 6.2 15.4 18.4l40 216.5c1.8 9.4 5.6 18.2 11.5 26.2 36.6 49.5 55.1 107.7 55 173.1 0 166-132.2 315.4-307.3 347.7z" fill="#231815" p-id="3419"></path></svg>