<?xml version="1.0" standalone="no"?><!DOCTYPE svg PUBLIC "-//W3C//DTD SVG 1.1//EN" "http://www.w3.org/Graphics/SVG/1.1/DTD/svg11.dtd"><svg t="1561553918104" class="icon" viewBox="0 0 1024 1024" version="1.1" xmlns="http://www.w3.org/2000/svg" p-id="3424" xmlns:xlink="http://www.w3.org/1999/xlink" width="64" height="64"><defs><style type="text/css"></style></defs><path d="M512 512m-512 0a512 512 0 1 0 1024 0 512 512 0 1 0-1024 0Z" fill="#F5AB38" p-id="3425"></path><path d="M520.448 806.229333c-271.36 0-292.437333-220.437333-292.437333-288 0-143.936 74.368-308.437333 284.010666-308.437333 106.197333-0.896 177.194667 27.605333 217.216 87.018667a32 32 0 1 1-53.077333 35.754666c-27.093333-40.213333-81.130667-59.946667-163.861333-58.773333-209.664 0-220.266667 203.029333-220.266667 244.437333 0 83.669333 29.674667 224 228.437333 224 179.754667 0 208.554667-144.448 211.562667-163.221333v-3.904h-154.666667a32 32 0 0 1 0-64h218.666667l-0.298667 77.034667c-0.277333 2.197333-31.36 218.090667-275.285333 218.090666z" fill="#FFFFFF" p-id="3426"></path></svg>