<?xml version="1.0" standalone="no"?><!DOCTYPE svg PUBLIC "-//W3C//DTD SVG 1.1//EN" "http://www.w3.org/Graphics/SVG/1.1/DTD/svg11.dtd"><svg t="1561549639888" class="icon" viewBox="0 0 1024 1024" version="1.1" xmlns="http://www.w3.org/2000/svg" p-id="19582" data-spm-anchor-id="a313x.7781069.0.i9" xmlns:xlink="http://www.w3.org/1999/xlink" width="128" height="128"><defs><style type="text/css"></style></defs><path d="M970.50624 489.10336c0-59.14624-10.97728-116.85888-32.11264-170.8032-1.92512-4.99712 4.38272-19.2512 29.9008-64.3072 5.9392-10.52672 10.24-18.35008 14.21312-26.2144 24.1664-47.47264 29.81888-82.49344 6.9632-111.4112-23.79776-30.06464-59.31008-30.72-108.78976-14.336a557.4656 557.4656 0 0 0-26.2144 9.6256c-37.31456 14.45888-51.44576 18.39104-50.95424 18.75968A466.7392 466.7392 0 0 0 501.88288 20.48a466.5344 466.5344 0 0 0-279.10144 92.16c-4.21888 3.11296-18.26816 1.55648-58.44992-7.7824-9.78944-2.2528-16.34304-3.6864-23.10144-5.07904-45.42464-9.0112-76.67712-7.12704-100.88448 13.76256-29.65504 25.64096-25.02656 60.37504-0.16384 115.5072 2.048 4.62848 4.25984 9.25696 7.168 15.48288 19.6608 41.69728 24.9856 56.81152 22.81472 61.97248a467.18976 467.18976 0 0 0-36.90496 182.59968c0 258.82624 209.79712 468.62336 468.5824 468.62336 56.7296 0 112.0256-10.07616 164.0448-29.4912a20.48 20.48 0 1 0-14.336-38.37952c-47.43168 17.73568-97.8944 26.91072-149.66784 26.91072-236.21632 0-427.66336-191.44704-427.66336-427.6224 0-58.04032 11.55072-114.44224 33.66912-166.66624 9.4208-22.24128 4.62848-35.92192-23.47008-95.4368-2.8672-6.02112-4.9152-10.48576-6.88128-14.82752-17.6128-38.95296-20.2752-59.14624-10.40384-67.66592 11.6736-10.07616 32.19456-11.30496 66.10944-4.58752 6.26688 1.2288 12.45184 2.62144 21.79072 4.79232 58.1632 13.5168 72.78592 15.1552 92.16 0.73728A425.5744 425.5744 0 0 1 501.88288 61.44c102.15424 0 198.69696 35.92192 275.2512 100.352 18.8416 15.85152 24.65792 14.21312 92.11904-11.96032 9.87136-3.80928 17.24416-6.5536 24.3712-8.92928 34.57024-11.4688 54.23104-11.0592 63.6928 0.86016 9.54368 12.0832 6.144 33.1776-11.34592 67.50208-3.60448 7.168-7.65952 14.5408-13.312 24.576-37.02784 65.37216-41.65632 75.776-32.39936 99.40992 19.2512 49.19296 29.2864 101.82656 29.2864 155.8528 0 137.37984-65.20832 263.86432-173.58848 344.064l-15.40096 11.38688 106.496 165.92896a20.48 20.48 0 0 0 34.44736-22.1184l-85.97504-134.02112a467.7632 467.7632 0 0 0 174.98112-365.24032z" fill="#1296db" p-id="19583" data-spm-anchor-id="a313x.7781069.0.i8" class=""></path><path d="M491.52 839.68a348.16 348.16 0 1 1 0-696.32 348.16 348.16 0 0 1 0 696.32z m0-40.96a307.2 307.2 0 1 0 0-614.4 307.2 307.2 0 0 0 0 614.4z" fill="#97C3AB" p-id="19584"></path><path d="M118.94784 173.09696l57.83552 8.6016a20.48 20.48 0 0 1 13.76256 31.9488l-8.97024 12.86144a20.48 20.48 0 0 1-34.816-2.048l-27.81184-51.36384zM895.7952 183.13216l-54.80448 20.43904a20.48 20.48 0 0 0-6.79936 34.16064l11.4688 10.6496a20.48 20.48 0 0 0 33.5872-9.17504l16.50688-56.07424z" fill="#97C3AB" p-id="19585"></path></svg>